<?xml version="1.0" encoding="UTF-8" standalone="no"?>
<!-- Created with Inkscape (http://www.inkscape.org/) -->

<svg
   xmlns:dc="http://purl.org/dc/elements/1.1/"
   xmlns:cc="http://creativecommons.org/ns#"
   xmlns:rdf="http://www.w3.org/1999/02/22-rdf-syntax-ns#"
   xmlns:svg="http://www.w3.org/2000/svg"
   xmlns="http://www.w3.org/2000/svg"
   xmlns:sodipodi="http://sodipodi.sourceforge.net/DTD/sodipodi-0.dtd"
   xmlns:inkscape="http://www.inkscape.org/namespaces/inkscape"
   id="svg2"
   version="1.1"
   inkscape:version="0.91 r13725"
   xml:space="preserve"
   width="114.5"
   height="114.5"
   viewBox="0 0 114.5 114.5"
   sodipodi:docname="Векторный смарт-объект.ai"><metadata
     id="metadata8"><rdf:RDF><cc:Work
         rdf:about=""><dc:format>image/svg+xml</dc:format><dc:type
           rdf:resource="http://purl.org/dc/dcmitype/StillImage" /><dc:title></dc:title></cc:Work></rdf:RDF></metadata><defs
     id="defs6"><clipPath
       clipPathUnits="userSpaceOnUse"
       id="clipPath16"><path
         d="m 0,91.6 91.6,0 L 91.6,0 0,0 0,91.6 Z"
         id="path18"
         inkscape:connector-curvature="0" /></clipPath></defs><sodipodi:namedview
     pagecolor="#ffffff"
     bordercolor="#666666"
     borderopacity="1"
     objecttolerance="10"
     gridtolerance="10"
     guidetolerance="10"
     inkscape:pageopacity="0"
     inkscape:pageshadow="2"
     inkscape:window-width="640"
     inkscape:window-height="480"
     id="namedview4"
     showgrid="false"
     inkscape:zoom="2.0611354"
     inkscape:cx="57.25"
     inkscape:cy="57.25"
     inkscape:window-x="0"
     inkscape:window-y="0"
     inkscape:window-maximized="0"
     inkscape:current-layer="g10" /><g
     id="g10"
     inkscape:groupmode="layer"
     inkscape:label="Векторный смарт-объект"
     transform="matrix(1.25,0,0,-1.25,0,114.5)"><g
       id="g12"><g
         id="g14"
         clip-path="url(#clipPath16)"><g
           id="g20"
           transform="translate(45.8,91.6)"><path
             d="m 0,0 c 25.295,0 45.8,-20.505 45.8,-45.8 0,-25.295 -20.505,-45.8 -45.8,-45.8 -25.295,0 -45.8,20.505 -45.8,45.8 C -45.8,-20.505 -25.295,0 0,0"
             style="fill:#eaecee;fill-opacity:1;fill-rule:nonzero;stroke:none"
             id="path22"
             inkscape:connector-curvature="0" /></g><g
           id="g24"
           transform="translate(66.4,72.7)"><path
             d="m 0,0 -40.8,-49.9 24.5,-22.8 c 23.5,2.4 41.5,21.9 41.5,45.6 0,2.7 -0.1,2.6 -0.1,3.2 L 0,0 Z"
             style="fill:#bbbcbf;fill-opacity:1;fill-rule:nonzero;stroke:none"
             id="path26"
             inkscape:connector-curvature="0" /></g><g
           id="g28"
           transform="translate(25.2,75.9)"><path
             d="m 0,0 0,-50.3 c 0,-0.4 0.3,-0.8 0.8,-0.8 l 43.5,0 c 0.4,0 0.8,0.3 0.8,0.8 l 0,19.1 c 0,0.2 -0.1,0.4 -0.2,0.5 L 14.4,0.4 c -0.1,0.1 -0.3,0.2 -0.5,0.2 l -13,0 C 0.3,0.8 0,0.4 0,0"
             style="fill:#0556a4;fill-opacity:1;fill-rule:nonzero;stroke:none"
             id="path30"
             inkscape:connector-curvature="0" /></g><g
           id="g32"
           transform="translate(30.7,68.6)"><path
             d="m 0,0 0,2.9 c 0,0.5 0.4,0.9 0.9,0.9 l 33.7,0 c 0.5,0 0.9,-0.4 0.9,-0.9 l 0,-35.8 c 0,-0.5 -0.4,-0.9 -0.9,-0.9 l -33.7,0 c -0.5,0 -0.9,0.4 -0.9,0.9 L 0,0 Z"
             style="fill:#ffffff;fill-opacity:1;fill-rule:nonzero;stroke:none"
             id="path34"
             inkscape:connector-curvature="0" /></g><g
           id="g36"
           transform="translate(30.7,68.6)"><path
             d="m 0,0 0,2.9 c 0,0.5 0.4,0.9 0.9,0.9 l 33.7,0 c 0.5,0 0.9,-0.4 0.9,-0.9 l 0,-35.8 c 0,-0.5 -0.4,-0.9 -0.9,-0.9 l -33.7,0 c -0.5,0 -0.9,0.4 -0.9,0.9 L 0,0 Z"
             style="fill:none;stroke:#0556a4;stroke-width:2;stroke-linecap:butt;stroke-linejoin:miter;stroke-miterlimit:10;stroke-dasharray:none;stroke-opacity:1"
             id="path38"
             inkscape:connector-curvature="0" /></g><g
           id="g40"
           transform="translate(39.2,63.3)"><path
             d="M 0,0 20.4,0"
             style="fill:none;stroke:#bbbcbf;stroke-width:1.29999995;stroke-linecap:round;stroke-linejoin:miter;stroke-miterlimit:10;stroke-dasharray:none;stroke-opacity:1"
             id="path42"
             inkscape:connector-curvature="0" /></g><g
           id="g44"
           transform="translate(39.2,58.9)"><path
             d="M 0,0 20.4,0"
             style="fill:none;stroke:#bbbcbf;stroke-width:1.29999995;stroke-linecap:round;stroke-linejoin:miter;stroke-miterlimit:10;stroke-dasharray:none;stroke-opacity:1"
             id="path46"
             inkscape:connector-curvature="0" /></g><g
           id="g48"
           transform="translate(39.2,54.6)"><path
             d="M 0,0 20.4,0"
             style="fill:none;stroke:#bbbcbf;stroke-width:1.29999995;stroke-linecap:round;stroke-linejoin:miter;stroke-miterlimit:10;stroke-dasharray:none;stroke-opacity:1"
             id="path50"
             inkscape:connector-curvature="0" /></g><g
           id="g52"
           transform="translate(39.2,50.2)"><path
             d="M 0,0 20.4,0"
             style="fill:none;stroke:#bbbcbf;stroke-width:1.29999995;stroke-linecap:round;stroke-linejoin:miter;stroke-miterlimit:10;stroke-dasharray:none;stroke-opacity:1"
             id="path54"
             inkscape:connector-curvature="0" /></g><g
           id="g56"
           transform="translate(26.6,68.1)"><path
             d="m 0,0 12.1,0 c 0.4,0 0.7,-0.2 1,-0.4 l 30.1,-30.8 c 0.3,-0.3 0.4,-0.6 0.4,-1 l 0,-12.2 c 0,-0.8 -0.6,-1.4 -1.4,-1.4 l -42.2,0 c -0.8,0 -1.4,0.6 -1.4,1.4 l 0,43 C -1.4,-0.7 -0.8,0 0,0"
             style="fill:#2cabe2;fill-opacity:1;fill-rule:nonzero;stroke:none"
             id="path58"
             inkscape:connector-curvature="0" /></g></g></g></g></svg>