<?xml version="1.0" encoding="UTF-8" standalone="no"?>
<!-- Created with Inkscape (http://www.inkscape.org/) -->

<svg
   xmlns:dc="http://purl.org/dc/elements/1.1/"
   xmlns:cc="http://creativecommons.org/ns#"
   xmlns:rdf="http://www.w3.org/1999/02/22-rdf-syntax-ns#"
   xmlns:svg="http://www.w3.org/2000/svg"
   xmlns="http://www.w3.org/2000/svg"
   xmlns:sodipodi="http://sodipodi.sourceforge.net/DTD/sodipodi-0.dtd"
   xmlns:inkscape="http://www.inkscape.org/namespaces/inkscape"
   id="svg2"
   version="1.1"
   inkscape:version="0.91 r13725"
   xml:space="preserve"
   width="141.25"
   height="141.25"
   viewBox="0 0 141.25 141.25"
   sodipodi:docname="Векторный смарт-объект3.ai"><metadata
     id="metadata8"><rdf:RDF><cc:Work
         rdf:about=""><dc:format>image/svg+xml</dc:format><dc:type
           rdf:resource="http://purl.org/dc/dcmitype/StillImage" /><dc:title></dc:title></cc:Work></rdf:RDF></metadata><defs
     id="defs6"><clipPath
       clipPathUnits="userSpaceOnUse"
       id="clipPath16"><path
         d="M 0,113 113,113 113,0 0,0 0,113 Z"
         id="path18"
         inkscape:connector-curvature="0" /></clipPath></defs><sodipodi:namedview
     pagecolor="#ffffff"
     bordercolor="#666666"
     borderopacity="1"
     objecttolerance="10"
     gridtolerance="10"
     guidetolerance="10"
     inkscape:pageopacity="0"
     inkscape:pageshadow="2"
     inkscape:window-width="640"
     inkscape:window-height="480"
     id="namedview4"
     showgrid="false"
     inkscape:zoom="1.6707965"
     inkscape:cx="70.625"
     inkscape:cy="70.625"
     inkscape:window-x="0"
     inkscape:window-y="0"
     inkscape:window-maximized="0"
     inkscape:current-layer="g10" /><g
     id="g10"
     inkscape:groupmode="layer"
     inkscape:label="Векторный смарт-объект3"
     transform="matrix(1.25,0,0,-1.25,0,141.25)"><g
       id="g12"><g
         id="g14"
         clip-path="url(#clipPath16)"><g
           id="g20"
           transform="translate(56.5,113)"><path
             d="M 0,0 C 31.204,0 56.5,-25.296 56.5,-56.5 56.5,-87.704 31.204,-113 0,-113 c -31.204,0 -56.5,25.296 -56.5,56.5 C -56.5,-25.296 -31.204,0 0,0"
             style="fill:#eaedef;fill-opacity:1;fill-rule:nonzero;stroke:none"
             id="path22"
             inkscape:connector-curvature="0" /></g><g
           id="g24"
           transform="translate(19.7,32.3)"><path
             d="m 0,0 30.6,-31.9 c 40,-2.6 62.6,27 62.6,56.1 l 0,3.5 L 70.2,51 0,0 Z"
             style="fill:#bdbec0;fill-opacity:1;fill-rule:nonzero;stroke:none"
             id="path26"
             inkscape:connector-curvature="0" /></g><g
           id="g28"
           transform="translate(28.1,82.7)"><path
             d="m 0,0 0,-6.9 -7.8,0 0,-45.2 27.8,0 17.8,-0.4 15.6,0 0,8 8,0 L 61.4,0 0,0 Z"
             style="fill:#eaedef;fill-opacity:1;fill-rule:nonzero;stroke:none"
             id="path30"
             inkscape:connector-curvature="0" /></g><g
           id="g32"
           transform="translate(86.2,84.1)"><path
             d="m 0,0 -56.6,0 c -2.2,0 -4,-1.8 -4,-4 0,-2.2 1.8,-4 4,-4 l 47,0 c 2.2,0 4,-1.8 4,-4 l 0,-32.1 c 0,-2.2 1.8,-4 4,-4 l 1.6,0 c 2.2,0 4,1.8 4,4 L 4,-4 C 4.1,-1.8 2.2,0 0,0"
             style="fill:#0056a7;fill-opacity:1;fill-rule:nonzero;stroke:none"
             id="path34"
             inkscape:connector-curvature="0" /></g><g
           id="g36"
           transform="translate(79.8,29.3)"><path
             d="m 0,0 c 9.1,-1.4 9.7,4.5 9.7,8.6 l 0,43.3 c 0,0.8 -0.7,1.5 -1.5,1.5 l -60,0 c -0.8,0 -1.5,-0.7 -1.5,-1.5 l 0,-5.5"
             style="fill:none;stroke:#0056a7;stroke-width:3;stroke-linecap:butt;stroke-linejoin:miter;stroke-miterlimit:10;stroke-dasharray:none;stroke-opacity:1"
             id="path38"
             inkscape:connector-curvature="0" /></g><g
           id="g40"
           transform="translate(81.6,76.9)"><path
             d="m 0,0 9.5,-11.3 0,-30.7 c 0,-0.7 -1.5,-6.2 -8.6,-4.1 L 0,-40.7 0,0 Z"
             style="fill:#0c3577;fill-opacity:1;fill-rule:nonzero;stroke:none"
             id="path42"
             inkscape:connector-curvature="0" /></g><g
           id="g44"
           transform="translate(80.1,29)"><path
             d="m 0,0 -50.4,0 c -6.2,0 -11.2,5 -11.2,11.2 l 0,34.6 c 0,0.5 0.4,0.9 0.9,0.9 l 60.7,0 c 0.5,0 0.9,-0.4 0.9,-0.9 l 0,-34.2 C 0.9,11.6 0.7,5.7 1,4.4 1.6,2 4.2,0.3 4.2,0.3 4.1,-0.2 0.5,0 0,0 Z"
             style="fill:none;stroke:#0056a7;stroke-width:3;stroke-linecap:butt;stroke-linejoin:miter;stroke-miterlimit:10;stroke-dasharray:none;stroke-opacity:1"
             id="path46"
             inkscape:connector-curvature="0" /></g><g
           id="g48"
           transform="translate(46.5,54.6)"><path
             d="m 0,0 -20.4,0 c -0.3,0 -0.5,0.2 -0.5,0.5 l 0,13.1 c 0,0.3 0.2,0.5 0.5,0.5 l 20.4,0 c 0.3,0 0.5,-0.2 0.5,-0.5 L 0.5,0.5 C 0.5,0.2 0.2,0 0,0"
             style="fill:#858586;fill-opacity:1;fill-rule:nonzero;stroke:none"
             id="path50"
             inkscape:connector-curvature="0" /></g><g
           id="g52"
           transform="translate(72.6,64.8)"><path
             d="m 0,0 -22.6,0 c -0.3,0 -0.5,0.2 -0.5,0.5 l 0,2.7 c 0,0.3 0.2,0.5 0.5,0.5 l 22.7,0 c 0.3,0 0.5,-0.2 0.5,-0.5 l 0,-2.7 C 0.5,0.3 0.3,0 0,0"
             style="fill:#858586;fill-opacity:1;fill-rule:nonzero;stroke:none"
             id="path54"
             inkscape:connector-curvature="0" /></g><g
           id="g56"
           transform="translate(72.6,49.5)"><path
             d="M 0,0 -46.5,0 C -46.8,0 -47,0.2 -47,0.5 l 0,0.9 c 0,0.3 0.2,0.5 0.5,0.5 l 46.6,0 c 0.3,0 0.5,-0.2 0.5,-0.5 l 0,-0.9 C 0.5,0.2 0.3,0 0,0"
             style="fill:#858586;fill-opacity:1;fill-rule:nonzero;stroke:none"
             id="path58"
             inkscape:connector-curvature="0" /></g><g
           id="g60"
           transform="translate(72.6,46.1)"><path
             d="M 0,0 -46.5,0 C -46.8,0 -47,0.2 -47,0.5 l 0,0.9 c 0,0.3 0.2,0.5 0.5,0.5 l 46.6,0 c 0.3,0 0.5,-0.2 0.5,-0.5 l 0,-0.9 C 0.5,0.2 0.3,0 0,0"
             style="fill:#858586;fill-opacity:1;fill-rule:nonzero;stroke:none"
             id="path62"
             inkscape:connector-curvature="0" /></g><g
           id="g64"
           transform="translate(72.6,42.8)"><path
             d="M 0,0 -46.5,0 C -46.8,0 -47,0.2 -47,0.5 l 0,0.9 c 0,0.3 0.2,0.5 0.5,0.5 l 46.6,0 c 0.3,0 0.5,-0.2 0.5,-0.5 l 0,-0.9 C 0.5,0.2 0.3,0 0,0"
             style="fill:#858586;fill-opacity:1;fill-rule:nonzero;stroke:none"
             id="path66"
             inkscape:connector-curvature="0" /></g><g
           id="g68"
           transform="translate(72.6,39.4)"><path
             d="M 0,0 -46.5,0 C -46.8,0 -47,0.2 -47,0.5 l 0,0.9 c 0,0.3 0.2,0.5 0.5,0.5 l 46.6,0 c 0.3,0 0.5,-0.2 0.5,-0.5 l 0,-0.9 C 0.5,0.2 0.3,0 0,0"
             style="fill:#858586;fill-opacity:1;fill-rule:nonzero;stroke:none"
             id="path70"
             inkscape:connector-curvature="0" /></g><g
           id="g72"
           transform="translate(72.6,36)"><path
             d="M 0,0 -46.5,0 C -46.8,0 -47,0.2 -47,0.5 l 0,0.9 c 0,0.3 0.2,0.5 0.5,0.5 l 46.6,0 c 0.3,0 0.5,-0.2 0.5,-0.5 l 0,-0.9 C 0.5,0.2 0.3,0 0,0"
             style="fill:#858586;fill-opacity:1;fill-rule:nonzero;stroke:none"
             id="path74"
             inkscape:connector-curvature="0" /></g><g
           id="g76"
           transform="translate(72.6,59.8)"><path
             d="m 0,0 -22.6,0 c -0.3,0 -0.5,0.2 -0.5,0.5 l 0,2.7 c 0,0.3 0.2,0.5 0.5,0.5 l 22.7,0 c 0.3,0 0.5,-0.2 0.5,-0.5 l 0,-2.7 C 0.5,0.2 0.3,0 0,0"
             style="fill:#858586;fill-opacity:1;fill-rule:nonzero;stroke:none"
             id="path78"
             inkscape:connector-curvature="0" /></g><g
           id="g80"
           transform="translate(72.6,54.7)"><path
             d="m 0,0 -22.6,0 c -0.3,0 -0.5,0.2 -0.5,0.5 l 0,2.7 c 0,0.3 0.2,0.5 0.5,0.5 l 22.7,0 c 0.3,0 0.5,-0.2 0.5,-0.5 l 0,-2.7 C 0.5,0.2 0.3,0 0,0"
             style="fill:#858586;fill-opacity:1;fill-rule:nonzero;stroke:none"
             id="path82"
             inkscape:connector-curvature="0" /></g></g></g></g></svg>