<svg id="slide-2" xmlns="http://www.w3.org/2000/svg" viewBox="0 0 67.64 67.64"><defs><style>.cls-1{fill:#eaecee;}.cls-2{opacity:0.2;fill:url(#linear-gradient);}.cls-3{fill:#db0812;}.cls-4{fill:#fff;}.cls-5{fill:#29abe2;}.cls-6{fill:#b3b3b3;}.cls-7{fill:url(#Безымянный_градиент_108);}.cls-8{fill:url(#Безымянный_градиент_105);}.cls-9{fill:#ebae92;}.cls-10,.cls-9{fill-rule:evenodd;}.cls-10{fill:#c4816a;}.cls-11{fill:#e8eced;}.cls-12{fill:#1a1a1a;}</style><linearGradient id="linear-gradient" x1="102.43" y1="1029.54" x2="74.58" y2="1008.42" gradientUnits="userSpaceOnUse"><stop offset="0" stop-color="#fff"/><stop offset="1"/></linearGradient><linearGradient id="Безымянный_градиент_108" x1="27.41" y1="12.33" x2="39.23" y2="12.33" gradientUnits="userSpaceOnUse"><stop offset="0" stop-color="#ccc"/><stop offset=".52" stop-color="#b3b3b3"/><stop offset="1" stop-color="#e6e6e6"/></linearGradient><linearGradient id="Безымянный_градиент_105" x1="66" y1="982.4" x2="81" y2="982.4" gradientUnits="userSpaceOnUse"><stop offset="0" stop-color="#4d4d4d"/><stop offset=".52" stop-color="#b3b3b3"/><stop offset="1" stop-color="#333"/></linearGradient></defs><title>icon</title><g id="content"><circle class="cls-1" cx="33.82" cy="33.82" r="33.82"/><path class="cls-2" d="M67.66 33.82a34 34 0 0 0-.73-7L50.2 10.27 18.91 59.83l6.82 6.82a33.82 33.82 0 0 0 41.93-32.83z"/><path class="cls-3" d="M17.18 10.27H50.2V53.4H17.18z"/><path class="cls-4" d="M19.38 13.84H47.4v36.81H19.38z"/><path class="cls-5" d="M21.03 17.97h24.38v1.92H21.03zM21.03 33.9h24.18v1.92H21.03z"/><path class="cls-6" d="M30.57 22.95h14.84v1.46H30.57zM30.57 25.18h14.84v1.46H30.57zM30.57 27.41h14.84v1.46H30.57zM30.57 29.65h14.84v1.46H30.57zM21.24 37.24h23.67v1.46H21.24zM21.24 39.47h23.67v1.46H21.24zM21.24 41.7h23.67v1.46H21.24zM21.24 43.93h23.67v1.46H21.24z"/><path class="cls-5" d="M21.03 22.91v8.24h8.24v-8.24h-8.24zm7.14 7.14h-6v-6h6v6z"/><path class="cls-7" d="M27.41 9.72h11.81v5.22H27.41z"/><path class="cls-8" d="M35.99 9.22c-.26-2-1.34-2.2-2.67-2.2s-2.41.2-2.66 2.2h-5v3h15v-3h-4.67z"/><path class="cls-9" d="M18.5 59.22l6.98-7.91-4.98-4.3-7.15 6.69 5.15 5.52z"/><path class="cls-10" d="M25.2 37.75l-3.12 4.5c-.4.58-1.35 3.18-.8 3.63s2.1-1 2.49-1.63l2-3.32c1.16-1.9.07-2.77-.57-3.18z"/><path class="cls-9" d="M33.89 35.55l-4.58 4.44a1.31 1.31 0 0 1 1 2.17 1.28 1.28 0 0 1 1.33 1.92 1.24 1.24 0 0 1 .83 2.16l-3.81 3.73a7.94 7.94 0 0 1-4.06 1.88c-3 .21-4.36-3.31-4-4.87.29-1.21.36-2.11.93-2.68l10.71-10.45a1.2 1.2 0 1 1 1.65 1.7z"/><path class="cls-10" d="M30.37 45.44l1.48-1.37h-.19a1.28 1.28 0 0 0 .1-.25c-.64.73-1.41 1.62-1.41 1.62zm-1.06-2.15v-.07c.37-.43.88-1 1.27-1.45a1.29 1.29 0 0 1-.23.41h.21l-1.24 1.18zm-.16-2.88v-.25l.17-.18a1 1 0 0 1 .27 0zm0-.25v.25l-1.67 1.5s1-1.13 1.66-1.75zm.16 3v.1l-.46.44z"/><path class="cls-11" d="M19.14 59.91l5.25-5.01-7.02-7.34-5.15 4.92 6.92 7.43z"/><path class="cls-12" d="M19.57 60.38l3.16-3.02-7.75-8.11-3.05 2.92 7.64 8.21z"/></g></svg>
