<svg xmlns="http://www.w3.org/2000/svg" xmlns:xlink="http://www.w3.org/1999/xlink" width="10.813" height="11.588" viewBox="0 0 10.813 11.588"><defs><path id="a" d="M0 0h10.814v11.588H0z"/></defs><clipPath id="b"><use xlink:href="#a" overflow="visible"/></clipPath><path clip-path="url(#b)" fill="#fff" d="M10.577 10.208L8.224 7.854a4.686 4.686 0 0 0 1.207-3.139A4.721 4.721 0 0 0 4.716 0C2.116 0 0 2.116 0 4.716s2.116 4.716 4.716 4.716a4.69 4.69 0 0 0 2.234-.564l2.483 2.483a.806.806 0 0 0 1.143 0 .807.807 0 0 0 .001-1.143m-8.96-5.492a3.102 3.102 0 0 1 3.099-3.099c1.708 0 3.099 1.39 3.099 3.099S6.424 7.814 4.716 7.814a3.101 3.101 0 0 1-3.099-3.098"/></svg>