<svg xmlns="http://www.w3.org/2000/svg" width="63" height="75" viewBox="0 0 63 75"><svg xmlns:xlink="http://www.w3.org/1999/xlink" height="26" viewBox="0 0 25.602 25.602" width="26"><path fill="#fff" d="M6.398 0v6.398h3.204V3.199h12.796v19.199H9.602V19.2H6.398v6.402h19.205V0z"/><path fill="#fff" d="M11.199 11.199H0v3.199h11.199v3.204L16 12.801 11.199 8z"/></svg><svg xmlns:xlink="http://www.w3.org/1999/xlink" height="22" viewBox="0 0 4.801 22" width="5" y="26"><path fill="#fff" d="M0 4.801h4.8v12.801H0zm0 13.597l2.398 3.205L4.8 18.399v-.001z"/><defs><path id="a" d="M0 0h4.8v22H0z"/></defs><use overflow="visible" xlink:href="#a" fill="#FFF"/><clipPath id="b"><use overflow="visible" xlink:href="#a"/></clipPath><path fill="#fff" d="M3.199 0H1.602C.719 0 0 .719 0 1.602V4h4.801V1.602C4.801.719 4.078 0 3.199 0" clip-path="url(#b)"/></svg><svg xmlns:xlink="http://www.w3.org/1999/xlink" height="12" viewBox="0 0 10.813 11.588" width="11" y="48"><defs><path id="c" d="M0 0h10.814v11.588H0z"/></defs><clipPath id="d"><use overflow="visible" xlink:href="#c"/></clipPath><path fill="#65BFF1" d="M10.577 10.208L8.224 7.854a4.686 4.686 0 0 0 1.207-3.139A4.721 4.721 0 0 0 4.716 0C2.116 0 0 2.116 0 4.716s2.116 4.716 4.716 4.716a4.69 4.69 0 0 0 2.234-.564l2.483 2.483a.806.806 0 0 0 1.143 0 .807.807 0 0 0 .001-1.143m-8.96-5.492a3.102 3.102 0 0 1 3.099-3.099c1.708 0 3.099 1.39 3.099 3.099S6.424 7.814 4.716 7.814a3.101 3.101 0 0 1-3.099-3.098" clip-path="url(#d)"/></svg><svg xmlns:xlink="http://www.w3.org/1999/xlink" height="15" viewBox="0 0 63.355 14.506" width="63" y="60"><defs><path id="e" d="M0 0h63.355v14.506H0z"/></defs><clipPath id="f"><use overflow="visible" xlink:href="#e"/></clipPath><g clip-path="url(#f)"><defs><path id="g" d="M0 0h63.355v14.506H0z"/></defs><clipPath id="h"><use overflow="visible" xlink:href="#g"/></clipPath><g clip-path="url(#h)"><defs><path id="i" d="M0 .361h13.981v13.981H0z"/></defs><clipPath id="j"><use overflow="visible" xlink:href="#i"/></clipPath><path fill="#B3B3B3" d="M6.99.361C3.136.361 0 3.498 0 7.352c0 3.855 3.136 6.991 6.99 6.991a6.999 6.999 0 0 0 6.991-6.991c0-3.854-3.136-6.991-6.991-6.991m1.739 7.236H7.592v4.056H5.906V7.597h-.801V6.166h.801v-.928c0-.663.315-1.701 1.701-1.701l1.248.005v1.391h-.906c-.148 0-.357.074-.357.39v.843h1.284l-.147 1.431z" clip-path="url(#j)"/></g><g clip-path="url(#h)"><defs><path id="k" d="M17.056.484h14.022v14.022H17.056z"/></defs><clipPath id="l"><use overflow="visible" xlink:href="#k"/></clipPath><g fill="#B3B3B3"><path d="M24.066 8.898c.774 0 1.404-.629 1.404-1.404a1.404 1.404 0 0 0-1.404-1.402c-.467 0-.883.23-1.137.585a1.4 1.4 0 0 0-.267.817c0 .775.631 1.404 1.404 1.404m3.066-3.12V4.427h-.176l-1.177.004.006 1.351z" clip-path="url(#l)"/><path d="M24.066.484c-3.865 0-7.01 3.146-7.01 7.011 0 3.866 3.145 7.012 7.01 7.012a7.02 7.02 0 0 0 7.012-7.012c0-3.865-3.145-7.011-7.012-7.011m3.988 6.193v3.265c0 .85-.691 1.541-1.542 1.541H21.62c-.85 0-1.54-.691-1.54-1.541V5.05c0-.851.69-1.542 1.54-1.542h4.892c.851 0 1.542.691 1.542 1.542v1.627z" clip-path="url(#l)"/><path d="M26.248 7.495a2.183 2.183 0 0 1-2.182 2.181 2.183 2.183 0 0 1-2.019-2.999h-1.19v3.265c0 .423.341.763.763.763h4.893c.422 0 .764-.34.764-.763V6.677h-1.19c.102.252.161.53.161.818" clip-path="url(#l)"/></g></g><g clip-path="url(#h)"><defs><path id="m" d="M34.049 0H48.51v14.461H34.049z"/></defs><clipPath id="n"><use overflow="visible" xlink:href="#m"/></clipPath><path fill="#B3B3B3" d="M41.278 0c-3.986 0-7.23 3.244-7.23 7.23 0 3.987 3.244 7.231 7.23 7.231s7.231-3.244 7.231-7.231C48.51 3.244 45.265 0 41.278 0m3.227 5.576c.003.071.004.143.004.216 0 2.199-1.674 4.734-4.734 4.734a4.7 4.7 0 0 1-2.552-.748 3.348 3.348 0 0 0 2.464-.688 1.668 1.668 0 0 1-1.555-1.156c.102.02.204.029.313.029.15 0 .299-.019.438-.058a1.663 1.663 0 0 1-1.335-1.631l.001-.021c.225.125.481.199.754.207a1.664 1.664 0 0 1-.515-2.221 4.723 4.723 0 0 0 3.43 1.739 1.665 1.665 0 0 1 2.835-1.519c.38-.073.737-.211 1.06-.403-.125.389-.39.715-.733.921.337-.04.659-.129.956-.261a3.431 3.431 0 0 1-.831.86" clip-path="url(#n)"/></g><g clip-path="url(#h)"><defs><path id="o" d="M51.727.273h11.629v13.775H51.727z"/></defs><clipPath id="p"><use overflow="visible" xlink:href="#o"/></clipPath><g fill="#B3B3B3"><path d="M63.153 7.248a1.467 1.467 0 0 0-1.256-1.143c-1.441-.161-2.901-.162-4.354-.161-1.453-.001-2.913 0-4.355.161a1.473 1.473 0 0 0-1.257 1.143c-.202.88-.204 1.842-.204 2.748 0 .907 0 1.869.202 2.75a1.472 1.472 0 0 0 1.257 1.142c1.442.161 2.901.162 4.354.161 1.454.001 2.913 0 4.354-.161a1.467 1.467 0 0 0 1.257-1.142c.203-.881.203-1.843.203-2.75s.002-1.869-.201-2.748m-8.109.682h-.842v4.473h-.782V7.93h-.826v-.733h2.45v.733zm2.123 4.473h-.703v-.423c-.28.319-.545.476-.803.476-.228 0-.384-.092-.453-.288-.038-.118-.063-.303-.063-.577V8.524h.703v2.855c0 .164 0 .25.006.273.018.108.07.164.164.164.143 0 .289-.108.445-.328V8.524h.703v3.879zm2.67-1.164c0 .357-.025.617-.071.781-.094.289-.282.436-.562.436-.25 0-.491-.139-.727-.429v.376h-.702V7.197h.702v1.701c.228-.28.468-.421.727-.421.279 0 .468.147.562.438.047.155.071.412.071.779v1.545zm2.652-.648h-1.405v.688c0 .357.117.537.358.537.174 0 .274-.095.314-.282.006-.037.015-.194.015-.476h.718v.103c0 .227-.009.382-.016.453a.972.972 0 0 1-.164.42c-.193.282-.482.421-.85.421s-.647-.132-.851-.396c-.148-.194-.226-.5-.226-.912V9.789c0-.414.068-.718.217-.914.203-.265.483-.398.842-.398.353 0 .633.133.829.398.147.196.219.5.219.914v.802z" clip-path="url(#p)"/><path d="M61.437 9.11c-.235 0-.353.179-.353.537v.359h.702v-.359c0-.358-.117-.537-.349-.537m-2.609 0c-.115 0-.233.055-.351.171v2.363c.117.117.235.174.351.174.203 0 .307-.174.307-.524V9.638c0-.349-.104-.528-.307-.528m.393-3.524c.26 0 .528-.157.812-.481v.428h.711v-3.92h-.711v2.996c-.158.222-.308.332-.448.332-.096 0-.152-.056-.167-.166-.008-.023-.008-.109-.008-.276V1.613h-.71v3.099c0 .277.023.465.063.583.072.199.229.291.458.291m-4.945-2.184v2.131h.788V3.402L56.01.273h-.796l-.538 2.065-.558-2.065h-.828c.165.487.338.978.505 1.466.253.733.41 1.286.481 1.663m2.791 2.183c.355 0 .633-.133.828-.4.149-.197.221-.505.221-.922V2.89c0-.419-.071-.725-.221-.923-.195-.268-.473-.402-.828-.402-.354 0-.631.134-.826.402-.152.198-.224.504-.224.923v1.373c0 .417.071.725.224.922.195.267.472.4.826.4m-.339-2.836c0-.363.111-.544.34-.544s.339.181.339.544v1.649c0 .362-.11.544-.339.544s-.34-.182-.34-.544V2.749z" clip-path="url(#p)"/></g></g></g></svg></svg>